# xmcd
#
# Track frame offsets:
#	150
#	22331
#	41926
#	59655
#	76814
#	97929
#	118153
#	135379
#	157767
#	178820
#	197951
#	217381
#	236192
#	257543
#	278901
#	295952
#
# Disc length: 4151 seconds
#
# Revision: 1
# Processed by: cddbd v1.5PL3 Copyright (c) Steve Scherf et al.
# Submitted via: audiograbber 1.83.01
#
DISCID=f9103510
DTITLE=呂方 - 既然愛了就不怕(Disk2)
DYEAR=1900
DGENRE=Oldies
TTITLE0=老情歌
TTITLE1=彎彎的月亮(國語)
TTITLE2=癡戀
TTITLE3=你令我快樂過
TTITLE4=地久天長
TTITLE5=你的淺笑
TTITLE6=聽不到的說話
TTITLE7=流浪花
TTITLE8=既然愛了就不怕
TTITLE9=多愛你一天
TTITLE10=無力感
TTITLE11=朋友別哭
TTITLE12=再見Goodbye
TTITLE13=眼淚\有多重
TTITLE14=情感意外
TTITLE15=絕對感激
EXTD=
EXTT0=
EXTT1=
EXTT2=
EXTT3=
EXTT4=
EXTT5=
EXTT6=
EXTT7=
EXTT8=
EXTT9=
EXTT10=
EXTT11=
EXTT12=
EXTT13=
EXTT14=
EXTT15=
PLAYORDER=
